<svg xmlns="http://www.w3.org/2000/svg" xmlns:xlink="http://www.w3.org/1999/xlink" version="1.1" x="0px" y="0px" viewBox="0 0 100 100" enable-background="new 0 0 100 100" xml:space="preserve"><path d="M50.7,28.7c1.5-0.8,3.1-0.1,3.8,1.3c0.7,1.4,0.1,3-1.2,3.7L31.7,44.5l18.4,9.1L95,31.3L49.9,8.7L5,31.2l20.8,10.5  c0.3-0.4,0.6-0.6,1.1-0.8L50.7,28.7z M20.8,42.1V52c0,2.7,1.8,5.5,5.2,7.9l-0.6-15.6L20.8,42.1z M50.1,56.7c-0.2,0-0.4-0.1-0.7-0.2  l-18.6-9.4l-0.5,15c11.7,5.3,29.9,5.2,41-0.4c5.4-2.7,8.3-6.2,8.3-9.7V42L50.7,56.5C50.5,56.6,50.3,56.7,50.1,56.7L50.1,56.7z   M30.5,72.7c-0.1-1.2-1-2-2.2-2.2c-1.4-0.2-2.5,0.9-2.7,2.2l-1.2,14.7c0,2.6,1.9,4,3.9,4c1.9-0.3,3.3-1.9,3.3-4L30.5,72.7z"></path></svg>