<?xml version="1.0" encoding="utf-8"?>
<!-- Generator: Adobe Illustrator 19.0.1, SVG Export Plug-In . SVG Version: 6.00 Build 0)  -->
<!DOCTYPE svg PUBLIC "-//W3C//DTD SVG 1.1//EN" "http://www.w3.org/Graphics/SVG/1.1/DTD/svg11.dtd">
<svg version="1.1"
	 id="Layer_1" xmlns:svg="http://www.w3.org/2000/svg" xmlns:rdf="http://www.w3.org/1999/02/22-rdf-syntax-ns#" xmlns:dc="http://purl.org/dc/elements/1.1/" xmlns:cc="http://creativecommons.org/ns#"
	 xmlns="http://www.w3.org/2000/svg" xmlns:xlink="http://www.w3.org/1999/xlink" x="0px" y="0px" viewBox="-255 334 100 125"
	 style="enable-background:new -255 334 100 125;" xml:space="preserve">
<path d="M-241.7,347.4c-4.5,0-8.3,3.7-8.3,8.2v56.6c0,4.4,3.6,8.1,8,8.2h0.3h73.4c4.5,0,8.3-3.7,8.3-8.2v-56.6
	c0-4.5-3.7-8.2-8.3-8.2H-241.7z M-230,353.2h50.1c2,6.8,7.4,12.2,14.2,14.2v33.2c-6.8,2-12.2,7.4-14.2,14.2H-230
	c-2-6.8-7.4-12.2-14.2-14.2v-33.2C-237.4,365.4-232,360-230,353.2z M-205,359.3c-0.6,0-1.2,0.2-1.8,0.6l-1.5,1.1
	c-0.5,0.4-1.1,0.6-1.8,0.6h-1.9c-1.3,0-2.5,0.8-2.9,2.1l-0.6,1.8c-0.2,0.6-0.6,1.2-1.1,1.5l-1.5,1.1c-1.1,0.8-1.5,2.2-1.1,3.4
	l0.6,1.8c0.2,0.6,0.2,1.3,0,1.9l-0.6,1.8c-0.4,1.3,0,2.6,1.1,3.4l1.5,1.1c0.5,0.4,0.9,0.9,1.1,1.5l0.6,1.8c0.4,1.3,1.6,2.1,2.9,2.1
	l1.9,0c0.6,0,1.3,0.2,1.8,0.6l1.5,1.1c1.1,0.8,2.5,0.8,3.6,0l1.5-1.1c0.5-0.4,1.1-0.6,1.8-0.6l1.9,0c1.3,0,2.5-0.9,2.9-2.1l0.6-1.8
	c0.2-0.6,0.6-1.2,1.1-1.5l1.5-1.1c1.1-0.8,1.5-2.1,1.1-3.4l-0.6-1.8c-0.2-0.6-0.2-1.3,0-1.9l0.6-1.8c0.4-1.3,0-2.7-1.1-3.4l-1.5-1.1
	c-0.5-0.4-0.9-0.9-1.1-1.5l-0.6-1.8c-0.4-1.3-1.6-2.1-2.9-2.1h-1.9c-0.6,0-1.3-0.2-1.8-0.6l-1.5-1.1
	C-203.8,359.5-204.4,359.3-205,359.3z M-205,363.9c5.7,0,10.3,4.6,10.3,10.3c0,5.7-4.6,10.3-10.3,10.3s-10.3-4.6-10.3-10.3
	C-215.3,368.5-210.7,363.9-205,363.9z M-205,364.9c-0.2,0-0.4,0.2-0.5,0.4l-2.2,5.2l-5.7,0.5c-0.2,0-0.4,0.2-0.5,0.4
	c-0.1,0.2,0,0.5,0.2,0.6l4.3,3.7l-1.3,5.6c0,0.2,0,0.3,0.1,0.5c0.1,0.1,0.3,0.2,0.4,0.2c0.1,0,0.2,0,0.3-0.1l4.9-3l4.9,3
	c0.2,0.1,0.4,0.1,0.6,0c0.2-0.1,0.3-0.4,0.2-0.6l-1.3-5.6l4.3-3.7c0.2-0.1,0.3-0.4,0.2-0.6c-0.1-0.2-0.3-0.4-0.5-0.4l-5.7-0.5
	l-2.2-5.2C-204.6,365-204.8,364.9-205,364.9z M-215.2,387l-5.7,20.5c-0.1,0.4,0.1,0.7,0.5,0.8c0.2,0,0.4,0,0.5-0.1l6.3-3.2l3.5,3.5
	c0.3,0.3,0.7,0.2,1,0c0.1-0.1,0.2-0.2,0.2-0.4l1.8-18.1c-0.8-0.5-1.5-1.3-2.5-1.6c-1.7,0-3.6,0.2-5-1
	C-214.9,387.2-215.1,387.1-215.2,387z M-194.8,387c-1.1,1.1-2.8,1.5-4.3,1.4c-0.9-0.3-1.9,0.2-2.6,0.8c-0.3,0.3-0.7,0.6-1.1,0.9
	l1.8,18.1c0.1,0.4,0.4,0.6,0.8,0.6c0.1,0,0.3-0.1,0.4-0.2l3.5-3.5l6.3,3.2c0.3,0.2,0.7,0.1,0.9-0.3c0.1-0.2,0.1-0.3,0.1-0.5
	L-194.8,387z"/>
</svg>
