<?xml version="1.0" encoding="utf-8"?>
<!-- Generator: Adobe Illustrator 19.0.1, SVG Export Plug-In . SVG Version: 6.00 Build 0)  -->
<!DOCTYPE svg PUBLIC "-//W3C//DTD SVG 1.1//EN" "http://www.w3.org/Graphics/SVG/1.1/DTD/svg11.dtd">
<svg version="1.1" id="Layer_1" xmlns="http://www.w3.org/2000/svg" xmlns:xlink="http://www.w3.org/1999/xlink" x="0px" y="0px"
	 viewBox="-255 334 100 125" style="enable-background:new -255 334 100 125;" xml:space="preserve">
<path d="M-224.1,387.2h-20.5c-1.7,0-3,1.3-3,3v26.7c0,1.7,1.3,3,3,3h20.5c1.7,0,3-1.3,3-3v-26.7
	C-221.1,388.5-222.4,387.2-224.1,387.2z M-227.1,413.8h-14.5v-20.7h14.5V413.8z"/>
<path d="M-194.1,377.5h-20.5c-1.7,0-3,1.3-3,3v36.3c0,1.7,1.3,3,3,3h20.5c1.7,0,3-1.3,3-3v-36.3
	C-191.1,378.8-192.4,377.5-194.1,377.5z M-197.1,413.8h-14.5v-30.3h14.5V413.8z"/>
<path d="M-164.1,401.8h-20.5c-1.6,0-3,1.3-3,3v12c0,1.7,1.4,3,3,3h20.5c1.7,0,3-1.3,3-3v-12C-161.1,403.2-162.4,401.8-164.1,401.8z
	 M-167.1,413.8h-14.5v-6h14.5V413.8z"/>
<g>
	<path d="M-192.5,359.6l-4.5,3.2l1.6,4.9c0.2,0.4,0.3,0.8,0.3,1.2c0,1.7-1.3,3-3,3c0,0,0,0,0,0c-0.6,0-1.2-0.2-1.8-0.6l-4.4-3.2
		l-4.5,3.2c-0.5,0.4-1.1,0.6-1.8,0.6c-0.6,0-1.2-0.2-1.8-0.6c-1.1-0.8-1.5-2.1-1.1-3.4l1.7-5.2l-4.5-3.2c-1.1-0.8-1.5-2.1-1.1-3.4
		c0.4-1.2,1.6-2.1,2.8-2.1c0,0,0,0,0,0l5.5,0l1.7-5.2c0.4-1.2,1.6-2.1,2.9-2.1c1.3,0,2.4,0.8,2.8,2.1l1.7,5.2l5.5,0h0
		c1.3,0,2.4,0.8,2.8,2.1C-191,357.5-191.4,358.8-192.5,359.6z"/>
</g>
</svg>
