<?xml version="1.0" encoding="utf-8"?>
<!-- Generator: Adobe Illustrator 19.0.1, SVG Export Plug-In . SVG Version: 6.00 Build 0)  -->
<!DOCTYPE svg PUBLIC "-//W3C//DTD SVG 1.1//EN" "http://www.w3.org/Graphics/SVG/1.1/DTD/svg11.dtd">
<svg version="1.1" id="Layer_1" xmlns="http://www.w3.org/2000/svg" xmlns:xlink="http://www.w3.org/1999/xlink" x="0px" y="0px"
	 viewBox="-255 334 100 125" style="enable-background:new -255 334 100 125;" xml:space="preserve">
<g>
	<g>
		<path d="M-166,383h-78c-1.1,0-2,0.9-2,2s0.9,2,2,2h78c1.1,0,2-0.9,2-2S-164.9,383-166,383z"/>
	</g>
	<g>
		<path d="M-166,425h-78c-1.1,0-2,0.9-2,2s0.9,2,2,2h78c1.1,0,2-0.9,2-2S-164.9,425-166,425z"/>
	</g>
	<g>
		<path d="M-199,389h-12c-1.1,0-2,0.9-2,2s0.9,2,2,2v26c-1.1,0-2,0.9-2,2c0,1.1,0.9,2,2,2v0h0h12c1.1,0,2-0.9,2-2s-0.9-2-2-2v-26
			c1.1,0,2-0.9,2-2C-197,389.9-197.9,389-199,389L-199,389L-199,389z"/>
	</g>
	<g>
		<path d="M-171,389h-12c-1.1,0-2,0.9-2,2s0.9,2,2,2v26c-1.1,0-2,0.9-2,2c0,1.1,0.9,2,2,2v0h0h12c1.1,0,2-0.9,2-2s-0.9-2-2-2v-26
			c1.1,0,2-0.9,2-2C-169,389.9-169.9,389-171,389L-171,389L-171,389z"/>
	</g>
	<g>
		<path d="M-240,419c-1.1,0-2,0.9-2,2s0.9,2,2,2h0h11.9h0.1v0c1.1,0,1.9-0.9,1.9-2s-0.9-2-1.9-2v-26c1.1,0,2-0.9,2-2s-0.9-2-2-2v0h0
			h-12c-1.1,0-2,0.9-2,2s0.9,2,2,2L-240,419L-240,419z"/>
	</g>
	<g>
		<path d="M-205.3,360.2c0.2-0.1,0.3-0.1,0.5,0l13.7,5.8c0,0,0,0,0,0c0-6.4-4.2-11.7-10.1-13.4c0-0.2,0.1-0.4,0.1-0.6
			c0-1.9-1.3-3.4-3-3.9V343c0,0,2,1.5,3,2s4,0,4,0l1-3c0,0-2.5,0-4,0s-4-3-4-3h-2v9.1c-1.7,0.4-3,2-3,3.9c0,0.2,0,0.4,0.1,0.6
			c-5.8,1.7-10.1,7.1-10.1,13.4c0,0,0,0,0,0L-205.3,360.2z"/>
	</g>
	<g>
		<path d="M-160.9,380.2l-43.9-18.5c-0.2-0.1-0.3-0.1-0.5,0l-43.9,18.5c-0.7,0.3-0.5,1.3,0.3,1.3h87.7
			C-160.4,381.4-160.2,380.5-160.9,380.2z M-205,378c-2.8,0-5-2.2-5-5s2.2-5,5-5s5,2.2,5,5S-202.2,378-205,378z"/>
	</g>
</g>
</svg>
