<?xml version="1.0" encoding="utf-8"?>
<!-- Generator: Adobe Illustrator 19.0.1, SVG Export Plug-In . SVG Version: 6.00 Build 0)  -->
<!DOCTYPE svg PUBLIC "-//W3C//DTD SVG 1.1//EN" "http://www.w3.org/Graphics/SVG/1.1/DTD/svg11.dtd">
<svg version="1.1" id="Layer_1" xmlns="http://www.w3.org/2000/svg" xmlns:xlink="http://www.w3.org/1999/xlink" x="0px" y="0px"
	 viewBox="-255 334 100 125" style="enable-background:new -255 334 100 125;" xml:space="preserve">
<path d="M-169.1,369.5c0-0.6,0-1.1,0-1.7c-0.1-2.1-1.5-3.8-3.5-4.4c-0.4-0.1-0.7-0.2-1.2-0.3c0-0.7,0-1.3,0-1.9c0-4.7-0.1-9.3,0-14
	c0.1-2.6-1.7-3.6-3.9-3.2c-0.5,0.1-1.1,0.3-1.6,0.4c-19.7,6.1-39.5,12.1-59.2,18.2c-0.5,0.1-0.9,0.3-1.5,0.5c0,0.7,0,1.3,0,1.9
	c0,16.3,0,32.6,0,48.9c0,0.5,0,1,0,1.5c0.1,1.5,0.8,2.7,2.1,3.6c0.4,0.3,0.8,0.5,1.2,0.8c21.4,0,42.8,0,64.2,0
	c2.6-1.3,3.4-3.5,3.3-6.4C-169.2,398.9-169.1,384.2-169.1,369.5z M-178.7,349.2c0,4.7,0,9.3,0,14c-15,0-29.9,0-44.7,0
	C-222.5,362.5-186,351.1-178.7,349.2z M-173.8,412.2c0,2.3-0.8,3.1-3.1,3.1c-18.4,0-36.8,0-55.2,0c-2.3,0-3.1-0.8-3.1-2.9
	c0-14.5,0-28.9,0-43.4c0-0.2,0-0.4,0.1-0.8c0.4-0.1,0.8-0.1,1.2-0.1c19.1,0,38.1,0,57.2,0c2,0,2.9,0.8,2.9,2.6c0,5.2,0,10.4,0,15.6
	c0,0.2-0.1,0.3-0.2,0.7c-1.3,0-2.6,0-3.9,0c-2.4,0-4.9,0-7.3,0c-1.9,0-2.8,0.8-2.8,2.7c0,2.9,0,5.8,0,8.6c0,1.9,0.9,2.7,2.8,2.7
	c3.2,0,6.4,0,9.6,0c0.5,0,1.1,0.1,1.7,0.1c0,0.5,0.1,0.9,0.1,1.2C-173.8,405.7-173.8,408.9-173.8,412.2z M-183.3,391.8
	c3.2,0,6.2,0,9.4,0c0,1.4,0,2.9,0,4.5c-3.1,0-6.1,0-9.3,0C-183.4,394.8-183.3,393.4-183.3,391.8z"/>
</svg>
