<?xml version="1.0" encoding="utf-8"?>
<!-- Generator: Adobe Illustrator 19.0.1, SVG Export Plug-In . SVG Version: 6.00 Build 0)  -->
<!DOCTYPE svg PUBLIC "-//W3C//DTD SVG 1.1//EN" "http://www.w3.org/Graphics/SVG/1.1/DTD/svg11.dtd">
<svg version="1.1" id="Layer_1" xmlns="http://www.w3.org/2000/svg" xmlns:xlink="http://www.w3.org/1999/xlink" x="0px" y="0px"
	 viewBox="-255 334 100 125" style="enable-background:new -255 334 100 125;" xml:space="preserve">
<g>
	<path d="M-160.3,374c4.5-2,6.5-7.3,4.5-11.8c-1.2-2.6-3.3-4.7-6-5.7c-2.7-1-5.6-1-8.3,0.2l-50.3,21.6c-4.9,0-8.8-2.6-11-7.1
		c-1.3-2.7-1.6-5.6-0.9-8.2c0,0-7.2,5.7-7.2,5.7s-4.2-2.4-4.2-2.4c-1.2,3.2-1.2,6.8,0.4,10c2.3,4.5,6.2,7.1,11.2,7.1l-14.5,6.2l0,0
		c-0.1,0-0.2,0.1-0.3,0.1c-3.3,1.5-5.9,4.3-7.2,7.7c-1.2,3.3-1,6.7,0.5,9.8c3,6.1,9.2,8.5,16,6.4c0.8-0.2,1.6-0.5,2.4-0.9l76.2-32.8
		c0.3-0.1,0.6-0.4,0.7-0.8c0.1-0.3,0.1-0.7,0-1.1c-0.3-0.7-1.1-1-1.8-0.7c-3.6,1.6-7,1.9-9.8,0.7L-160.3,374L-160.3,374z
		 M-208.5,376.2c3.6,0.8,6.5,3.2,8.4,6.8c0.7,1.5,1.1,3.1,1.2,4.6l-33.7,14.5c0,0,0,0,0,0c0.9-2.2,0.8-4.7-0.2-6.8
		c-1.3-2.9-3.7-5-6.5-5.9L-208.5,376.2z M-236.5,410.3c-6.5,2.9-12.1,1.3-14.8-4.2c-1.2-2.4-1.3-5.1-0.4-7.6c1-2.7,3.1-5,5.7-6.2
		c4.1-1.8,8.8,0,10.7,4l-11.1,5.2c-0.7,0.3-1,1.1-0.7,1.8c0.8,1.8,2.3,3.2,4.1,3.9c1.8,0.7,3.7,0.7,5.4-0.1l0,0l38.4-16.6
		c-0.3,1.5-0.8,2.9-1.5,4.2L-236.5,410.3z M-234.7,399.1c0,0.7-0.2,1.4-0.4,2.1c-0.6,1.5-1.8,2.8-3.3,3.5c-1.2,0.5-2.4,0.5-3.6,0.1
		c-0.7-0.3-1.4-0.7-1.9-1.3L-234.7,399.1z M-188.5,389.6c0.7-1.3,1.3-2.7,1.5-4.2l13.8-5.9c1.2,0.8,2.6,1.4,4.1,1.7L-188.5,389.6z
		 M-161.4,371.5l-25.5,11c-0.1-1.5-0.5-3.1-1.2-4.6c-1.8-3.7-4.8-6.1-8.4-6.9l27.5-11.8c4.1-1.8,8.9,0,10.7,4.1
		C-156.9,366.4-158.3,370.1-161.4,371.5L-161.4,371.5z"/>
</g>
</svg>
