<?xml version="1.0" standalone="no"?>
<!DOCTYPE svg PUBLIC "-//W3C//DTD SVG 20010904//EN"
 "http://www.w3.org/TR/2001/REC-SVG-20010904/DTD/svg10.dtd">
<svg version="1.0" xmlns="http://www.w3.org/2000/svg"
 width="355.000000pt" height="355.000000pt" viewBox="0 0 355.000000 355.000000"
 preserveAspectRatio="xMidYMid meet">
<metadata>
Created by potrace 1.11, written by Peter Selinger 2001-2013
</metadata>
<g transform="translate(0.000000,355.000000) scale(0.100000,-0.100000)"
fill="#000000" stroke="none">
<path d="M264 2413 c-68 -84 -254 -328 -254 -333 0 -3 43 -4 95 -3 91 1 95 0
96 -20 0 -12 1 -224 1 -472 -1 -247 1 -457 4 -465 3 -13 34 -15 216 -14 117 1
215 2 218 3 3 0 5 301 5 669 l0 667 -176 2 -177 1 -28 -35z"/>
<path d="M1301 2440 c-169 -36 -314 -127 -413 -260 -79 -105 -130 -263 -130
-395 2 -196 65 -349 202 -486 166 -166 406 -231 634 -172 143 37 241 96 332
196 55 61 114 149 114 172 0 8 3 15 8 15 7 0 36 92 48 150 7 36 6 168 -1 215
-22 142 -85 265 -190 371 -133 134 -267 193 -455 199 -58 2 -125 0 -149 -5z
m-1 -573 l128 -93 164 1 164 0 -8 -50 c-43 -243 -329 -352 -519 -197 -81 65
-121 149 -120 251 0 64 37 181 57 181 3 0 63 -42 134 -93z"/>
<path d="M2695 2417 c-500 -142 -667 -754 -304 -1115 136 -136 308 -203 507
-197 178 5 315 66 453 205 135 134 191 271 190 458 -2 288 -170 530 -441 633
-71 27 -93 30 -215 35 -92 3 -123 0 -190 -19z m292 -349 c88 -32 166 -117 194
-210 19 -62 13 -152 -15 -213 -13 -30 -28 -55 -31 -55 -4 0 -66 43 -139 95
l-131 96 -120 -1 c-66 -1 -137 -1 -159 -1 l-39 1 6 42 c14 104 106 213 209
249 66 23 158 22 225 -3z"/>
</g>
</svg>
